<?xml version="1.0" encoding="utf-8"?>
<!-- Generator: Adobe Illustrator 22.1.0, SVG Export Plug-In . SVG Version: 6.00 Build 0)  -->
<svg version="1.1" id="レイヤー_1" xmlns="http://www.w3.org/2000/svg" xmlns:xlink="http://www.w3.org/1999/xlink" x="0px"
	 y="0px" viewBox="0 0 160.9 33" style="enable-background:new 0 0 160.9 33;" xml:space="preserve">
<style type="text/css">
	.st0{fill:#FFFFFF;}
	.st1{display:none;}
	.st2{display:inline;fill:#FFFFFF;}
</style>
<g>
	<path class="st0" d="M128.5,31.3v-1.5c0.3-0.1,0.8-0.2,1.5-0.3c1.1-0.2,1.8-0.4,2.1-0.6c0.2-0.2,0.5-0.6,0.9-1.3l4.4-11.7l5.2-13.7
		c0.5,0,1,0,1.4,0h1l0.2,0.4l3.8,9.1c0.9,1.9,1.6,3.8,2.3,5.6s1.3,3.3,1.8,4.5c0.3,0.7,0.7,1.7,1.2,3.1c0.3,0.8,0.7,1.7,1.2,2.8
		c0.3,0.6,0.5,1,0.7,1.1c0.3,0.2,0.7,0.4,1.3,0.4c0.6,0.1,1.2,0.3,1.9,0.5c0.1,0.5,0.1,0.8,0.1,1.1c0,0.1,0,0.3,0,0.5
		c-1.1,0-2.3-0.1-3.6-0.2c-1.3-0.1-2.5-0.2-3.5-0.2c-1.2,0-2,0-2.5,0l-3.8,0.2H145c0-0.5,0-1,0.1-1.5l2.5-0.5
		c0.7-0.2,1.2-0.3,1.3-0.4c0.1-0.1,0.2-0.3,0.2-0.5s0-0.4-0.1-0.6l-0.9-2.2l-1.7-4.3H138c-0.3,0.7-1,2.4-1.9,5.2
		c-0.3,0.8-0.4,1.3-0.4,1.6c0,0.4,0.1,0.7,0.3,0.8c0.3,0.3,1,0.5,1.9,0.6c0.1,0,0.7,0.1,1.6,0.2c0,0.5,0,0.9,0,1.1
		c0,0.2,0,0.3,0,0.5c-0.9,0-3.1-0.1-6.5-0.4l-0.9,0.2c-1.1,0.2-2.1,0.3-3.1,0.3h-0.5V31.3z M138.8,19c3.4,0,5.5,0.1,6.1,0.1h0.6
		c-0.5-1.3-1-2.8-1.7-4.6c-0.7-1.7-1.3-3.1-1.7-4L138.8,19z"/>
	<path class="st0" d="M98.9,31.5v-1.8c0.4-0.1,0.8-0.2,1.3-0.2c1-0.1,1.7-0.3,2.3-0.6c0.2-0.3,0.3-0.7,0.4-1c0.1-0.8,0.2-2,0.2-3.6
		v-9.4c0-1-0.1-3.5-0.2-7.6c0-1.1-0.1-1.8-0.2-2.1c-0.1-0.1-0.1-0.2-0.2-0.2c-0.3-0.2-0.7-0.3-1.3-0.3c-0.3,0-1-0.1-2.2-0.2L99,3
		l4.9-0.1l7.2-0.2h0.9c0.2,0,0.3,0,0.5,0c0.1,0,0.5,0,1.2,0h1.4c1.1,0,2.3,0.2,3.6,0.5c0.5,0.1,1.1,0.4,1.8,0.7
		c0.8,0.4,1.4,0.8,2,1.4c0.5,0.6,1,1.2,1.2,2c0.3,0.7,0.4,1.5,0.4,2.3c0,0.9-0.2,1.7-0.6,2.4c-0.4,0.7-1,1.4-1.8,2
		c-0.4,0.3-1.4,0.8-2.8,1.5c2.2,0.5,3.9,1.4,5.1,2.7s1.7,2.8,1.7,4.4c0,1-0.2,2-0.5,3c-0.3,0.8-0.7,1.5-1.4,2.2
		c-0.8,0.9-1.7,1.6-2.6,2c-0.9,0.5-2.2,0.8-3.9,1.1c-0.8,0.1-2.1,0.2-3.7,0.2l-3.7-0.1c-1.6,0-3.5,0.1-5.7,0.2
		C103.5,31.4,101.8,31.4,98.9,31.5z M109.2,14.8c0.6,0.1,1.3,0.1,2.1,0.1c2.2,0,3.9-0.4,5-1.2c1.1-0.8,1.7-2.2,1.7-4.2
		c0-1.4-0.5-2.6-1.6-3.5s-2.7-1.4-4.8-1.4c-0.6,0-1.4,0.1-2.5,0.2c0,0.3,0,0.8,0,1.5c0.1,1.2,0.1,3,0.1,5.2v1.8
		C109.2,13.7,109.2,14.2,109.2,14.8z M109.5,28.8c1,0.4,1.8,0.6,2.7,0.6c1.7,0,3-0.3,4.1-0.8s1.8-1.2,2.3-2.1
		c0.5-0.9,0.7-2.1,0.7-3.4c0-1.4-0.3-2.5-0.8-3.4c-0.7-1.2-1.6-2-2.7-2.4c-1-0.4-2.6-0.6-4.7-0.6c-0.9,0-1.6,0.1-1.9,0.2v2.7v3.3
		l0.1,5.1C109.3,28.3,109.3,28.5,109.5,28.8z"/>
	<path class="st0" d="M64,2.8c0.8,0,1.6,0.1,2.2,0.2c1.2,0.2,2.5,0.2,4,0.2c0.5,0,1.9,0,4.1-0.1c3.3-0.1,6.2-0.2,8.9-0.2h4
		c0.9,0,2.2,0.1,4,0.3c0.3,0.3,0.4,0.7,0.4,1.2v4.5l0.1,0.9c0,0.1,0,0.2,0,0.4h-0.9c-0.1,0-0.4,0-0.7,0c-0.1-0.3-0.3-0.7-0.5-1.3
		l-0.9-1.6c-0.3-0.7-0.8-1.3-1.4-2c-0.4-0.1-0.8-0.2-1.4-0.2c-0.1,0-0.6,0-1.3-0.1c-1.4-0.1-2.8-0.2-4.4-0.2c-1.8,0-3.4,0-4.8,0.1
		c0,0.4-0.1,1.8-0.1,4.3v3.7v2.8c0.4,0,0.7,0.1,1,0.1c2.6,0,4.5-0.1,5.6-0.2c1.1-0.1,1.8-0.2,2.1-0.4c0.3-0.2,0.5-0.5,0.7-1
		c0.1-0.3,0.4-1.4,0.8-3.2h0.3h1.3c0.1,1.3,0.1,2.3,0.1,3c0,1.5,0,2.5,0,3c0,0.4,0,0.8,0,1c0,0.4,0,1,0.1,1.9c0,0.9,0.1,1.5,0.1,2
		v0.5h-1.6c-0.1-0.2-0.2-0.7-0.3-1.5c-0.3-1.4-0.6-2.2-0.8-2.6c-0.2-0.3-0.5-0.5-0.9-0.6c-0.3-0.1-1.4-0.2-3.3-0.2
		c-2.2,0-3.9,0.1-5,0.2c0,0.4,0,0.6,0,0.8c0,1.8,0,3.2,0.1,4.4v4.8c0,0.6,0.2,0.9,0.6,1.1c0.6,0.3,2.4,0.5,5.5,0.5
		c2,0,3.8-0.2,5.2-0.5c1-0.2,1.9-0.7,2.6-1.5c1-1,1.8-2.4,2.5-4.2c0.5,0,0.8-0.1,1.1-0.1c0.2,0,0.4,0,0.7,0c0,0.4-0.1,0.7-0.1,0.9
		l-0.1,0.7l-0.8,4.2l-0.4,2.5c-1,0-1.7,0.1-2.3,0.1c-0.8,0-3-0.1-6.6-0.2C81,31.1,78,31,74.4,31c-1.8,0-3.9,0.1-6.5,0.2H67l-2.7,0.1
		v-1.5c0.3-0.1,0.8-0.2,1.7-0.2c1.5-0.2,2.6-0.4,3.2-0.7c0.2-0.4,0.2-1,0.2-1.6c0-0.3,0-0.7,0-1.3v-0.7L69.3,17v-2.5L69.2,11V8.5
		L69,5.8c0-0.1,0-0.2,0-0.4c-0.1-0.2-0.4-0.3-0.7-0.3c-0.2,0-0.4-0.1-0.7-0.1c-0.8-0.2-1.6-0.3-2.4-0.3c-0.3,0-0.6,0-1-0.1L64,2.8z"
		/>
	<g class="st1">
		<path class="st2" d="M57.9,9.6c0-0.1-0.1-0.2-0.1-0.4c0-0.1,0-0.3,0-0.4c-0.6-3.4-18-3.4-39,0.1s-37.5,9.1-37,12.5
			c0,0.1,0.1,0.2,0.1,0.4c0,0.1,0,0.3,0,0.4c0.6,3.4,18,3.4,39-0.1C41.9,18.7,58.5,13.1,57.9,9.6z M-3.4,19.9
			c1.1-1.9,10.9-4.8,23.1-6.8s22.5-2.3,24.1-0.9C42.7,14.1,32.9,17,20.7,19C8.5,21-1.8,21.4-3.4,19.9z"/>
		<path class="st2" d="M39.8,12.3c1.6,10.6-5.7,20.6-16.3,22.2C12.8,36.1,2.9,28.8,1.2,18.1C-0.4,7.5,6.9-2.5,17.5-4.1
			C28.2-5.7,38.2,1.6,39.8,12.3z"/>
		<path class="st2" d="M40,15.1c-5,1.5-11.7,3.5-19.3,4.8C13.8,21,7.3,21.2,2.3,21.5c0.3,1,0.8,2,1.2,3c5.4-0.5,11.3-0.8,17.4-1.8
			c6.8-1.1,13.2-3,18.9-4.4C39.9,17.2,40,16.2,40,15.1z"/>
	</g>
</g>
<path class="st0" d="M42.3,10.4c-2.8-5.3-8.8-8.5-15-7.5c-6.3,1-10.9,6-11.9,11.9c-8.8,2.3-14.5,5-14.2,7s6.7,2.7,15.7,2.1
	c2.8,5.3,8.8,8.4,15,7.4c6.2-1,10.9-5.9,11.9-11.8c8.8-2.3,14.6-5,14.2-7C57.7,10.6,51.4,9.8,42.3,10.4z M12,20.6
	c-0.1-0.5,1.1-1.2,3.2-1.9c0,0.2,0,0.5,0.1,0.7c0.1,0.7,0.3,1.3,0.5,1.9C13.5,21.3,12.1,21.1,12,20.6z M43.9,19
	c0,0-6.8,2.5-13.5,3.6c-6.3,1-13.6,1.1-13.6,1.1l-1-2.1c0,0,6.4,0,14.2-1.3C37.7,19,43.8,17,43.8,17L43.9,19z M44,16.7
	c0-0.6-0.1-1.2-0.2-1.9c0-0.2-0.1-0.4-0.1-0.6c2,0,3.2,0.3,3.3,0.7C47,15.4,45.9,16,44,16.7z"/>
</svg>
